<svg width="17" height="16" viewBox="0 0 17 16" fill="none" xmlns="http://www.w3.org/2000/svg">
<path d="M8.5 8C9.29113 8 10.0645 7.76541 10.7223 7.32588C11.3801 6.88635 11.8928 6.26164 12.1955 5.53074C12.4983 4.79983 12.5775 3.99556 12.4231 3.21964C12.2688 2.44372 11.8878 1.73098 11.3284 1.17157C10.769 0.612164 10.0563 0.231202 9.28036 0.0768607C8.50444 -0.0774802 7.70017 0.00173312 6.96927 0.304484C6.23836 0.607234 5.61365 1.11992 5.17412 1.77772C4.7346 2.43552 4.5 3.20888 4.5 4C4.5 5.06087 4.92143 6.07828 5.67157 6.82843C6.42172 7.57857 7.43913 8 8.5 8ZM8.5 10C5.83 10 0.5 11.34 0.5 14V16H16.5V14C16.5 11.34 11.17 10 8.5 10Z" fill="white"/>
</svg>
